<?xml version="1.0" encoding="UTF-8"?>
<!DOCTYPE svg PUBLIC "-//W3C//DTD SVG 1.1//EN" "http://www.w3.org/Graphics/SVG/1.1/DTD/svg11.dtd">
<!-- Creator: CorelDRAW 2021 (64 Bit) -->
<svg xmlns="http://www.w3.org/2000/svg" xml:space="preserve" width="423.333mm" height="282.222mm" version="1.1" style="shape-rendering:geometricPrecision; text-rendering:geometricPrecision; image-rendering:optimizeQuality; fill-rule:evenodd; clip-rule:evenodd"
viewBox="0 0 42333.34 28222.22"
 xmlns:xlink="http://www.w3.org/1999/xlink"
 xmlns:xodm="http://www.corel.com/coreldraw/odm/2003">
 <defs>
  <style type="text/css">
   <![CDATA[
    .fil0 {fill:#111C2E;fill-rule:nonzero}
    .fil3 {fill:#1A2140;fill-rule:nonzero}
    .fil1 {fill:#1D2840;fill-rule:nonzero}
    .fil2 {fill:#203054;fill-rule:nonzero}
    .fil4 {fill:#343B57;fill-rule:nonzero}
   ]]>
  </style>
 </defs>
 <g id="Camada_x0020_1">
  <metadata id="CorelCorpID_0Corel-Layer"/>
  <polygon class="fil0" points="-0,28222.22 42333.34,28222.22 42333.34,0 -0,0 "/>
  <polygon class="fil1" points="42333.34,12692.62 38823.2,12692.62 36578.47,16580.94 38823.2,20469.19 42333.34,20469.19 "/>
  <polygon class="fil2" points="35976.64,2455.4 30066.23,2455.4 27110.98,7574 30066.23,12692.62 35976.64,12692.62 38931.86,7574 "/>
  <polygon class="fil3" points="23935.42,0 23336.78,1036.88 26292,6155.51 32202.48,6155.51 35157.73,1036.88 34559.09,0 "/>
  <polygon class="fil3" points="42333.34,2455.4 38113.06,2455.4 35157.73,7574 38113.06,12692.62 42333.34,12692.62 "/>
  <polygon class="fil4" points="36846.59,14022.91 40519,14022.91 42333.34,10880.43 42333.34,11233.03 40620.96,14199.3 36744.63,14199.3 34806.68,10842.55 36744.63,7485.8 40620.96,7485.8 42333.34,10452.07 42333.34,10804.67 40519,7662.19 36846.59,7662.19 35010.38,10842.55 "/>
  <polygon class="fil4" points="42333.34,11233.2 40671.76,14111.11 42333.34,16989 42333.34,17341.96 40467.85,14111.11 42333.34,10880.22 "/>
  <path class="fil4" d="M31185.28 17291.44l3672.34 0 1836.21 -3180.33 -1836.21 -3180.36 -3672.34 0 -1836.21 3180.36 1836.21 3180.33zm3774.19 176.38l-3876.04 0 -1938.02 -3356.71 1938.02 -3356.75 3876.04 0 1937.92 3356.75 -1937.92 3356.71z"/>
  <path class="fil4" d="M25523.97 14022.91l3672.31 0 1836.21 -3180.36 -1836.21 -3180.36 -3672.31 0 -1836.21 3180.36 1836.21 3180.36zm3774.16 176.39l-3876.04 0 -1938.02 -3356.75 1938.02 -3356.75 3876.04 0 1938.05 3356.75 -1938.05 3356.75z"/>
  <path class="fil4" d="M31185.28 10754.36l3672.34 0 1836.21 -3180.36 -1836.21 -3180.37 -3672.34 0 -1836.21 3180.37 1836.21 3180.36zm3774.19 176.39l-3876.04 0 -1938.02 -3356.75 1938.02 -3356.76 3876.04 0 1937.92 3356.76 -1937.92 3356.75z"/>
  <polygon class="fil4" points="31185.28,4217.24 34857.62,4217.24 36693.83,1036.88 36095.18,0 36298.78,0 36897.39,1036.88 34959.47,4393.63 31083.43,4393.63 29145.41,1036.88 29744.05,0 29947.72,0 29349.07,1036.88 "/>
  <polygon class="fil4" points="36095.16,28222.22 36693.83,27185.3 34857.62,24004.97 31185.28,24004.97 29349.07,27185.3 29947.74,28222.22 29744.07,28222.22 29145.41,27185.3 31083.43,23828.58 34959.47,23828.58 36897.39,27185.3 36298.76,28222.22 "/>
  <path class="fil4" d="M14201.32 27097.11l3672.35 0 1836.21 -3180.33 -1836.21 -3180.36 -3672.35 0 -1836.17 3180.36 1836.17 3180.33zm3774.19 176.38l-3876.04 0 -1938.02 -3356.71 1938.02 -3356.75 3876.04 0 1938.02 3356.75 -1938.02 3356.71z"/>
  <path class="fil4" d="M8540.01 17291.44l3672.39 0 1836.17 -3180.33 -1836.17 -3180.36 -3672.39 0 -1836.17 3180.36 1836.17 3180.33zm3774.2 176.38l-3876.04 0 -1938.02 -3356.71 1938.02 -3356.75 3876.04 0 1938.02 3356.75 -1938.02 3356.71z"/>
  <path class="fil4" d="M8540.01 23828.58l3672.39 0 1836.17 -3180.36 -1836.17 -3180.4 -3672.39 0 -1836.17 3180.4 1836.17 3180.36zm3774.2 176.39l-3876.04 0 -1938.02 -3356.75 1938.02 -3356.78 3876.04 0 1938.02 3356.78 -1938.02 3356.75z"/>
  <polygon class="fil4" points="14201.32,948.69 17873.67,948.69 18421.4,0 18625.08,0 17975.51,1125.08 14099.47,1125.08 13449.9,0 13653.6,0 "/>
  <polygon class="fil4" points="-0,23828.58 889.75,23828.58 2725.93,20648.22 889.75,17467.82 -0,17467.82 -0,17291.44 991.59,17291.44 2929.61,20648.22 991.59,24004.97 -0,24004.97 "/>
  <polygon class="fil4" points="18421.42,28222.22 17873.67,27273.49 14201.32,27273.49 13653.58,28222.22 13449.89,28222.22 14099.47,27097.11 17975.51,27097.11 18625.09,28222.22 "/>
  <polygon class="fil4" points="13449.91,28222.22 14048.57,27185.3 12212.4,24004.97 8540.01,24004.97 6703.84,27185.3 7302.5,28222.22 7098.81,28222.22 6500.15,27185.3 8438.17,23828.58 12314.21,23828.58 14252.23,27185.3 13653.57,28222.22 "/>
  <polygon class="fil2" points="10912.59,25561.03 5002.11,25561.03 3465.68,28222.22 12449.03,28222.22 "/>
  <polygon class="fil3" points="6133.36,15827.69 4341.32,15827.69 3445.26,17379.67 4341.32,18931.68 6133.36,18931.68 7029.42,17379.67 "/>
  <polygon class="fil2" points="34608.95,15555.06 31433.95,15555.06 29846.45,18304.68 31433.95,21054.3 34608.95,21054.3 36196.42,18304.68 "/>
  <polygon class="fil1" points="2955.24,3745.58 -0,3745.58 -0,13982.8 2955.24,13982.8 5910.48,8864.21 "/>
  <polygon class="fil3" points="-0,20648.26 1996.97,20648.26 3515.52,23278.43 1996.97,25908.63 -0,25908.63 "/>
 </g>
</svg>
